<svg xmlns="http://www.w3.org/2000/svg" viewBox="0 0 400 400" preserveAspectRatio="xMidYMid slice">
  <defs>
    <radialGradient id="codeGlow" cx="50%" cy="55%" r="60%">
      <stop offset="0%" stop-color="#F0B546" stop-opacity="0.35"></stop>
      <stop offset="55%" stop-color="#2a2010" stop-opacity="0.55"></stop>
      <stop offset="100%" stop-color="#141414"></stop>
    </radialGradient>
  </defs>
  <rect width="400" height="400" fill="url(#codeGlow)"></rect>
  
  <rect x="0" y="335" width="400" height="65" fill="#0a0a0a"></rect>
  
  <path d="M 90 335 L 310 335 L 340 355 L 60 355 Z" fill="#1e1e1e" stroke="#3a3a3a" stroke-width="1.5"></path>
  
  <path d="M 110 335 L 290 335 L 275 200 L 125 200 Z" fill="#0a0a0a" stroke="#3a3a3a" stroke-width="1.5"></path>
  
  <g stroke="#F0B546" stroke-width="2" stroke-linecap="round">
    <line x1="135" y1="220" x2="180" y2="220"></line>
    <line x1="188" y1="220" x2="230" y2="220" stroke="#f5f0ea" opacity="0.7"></line>
    <line x1="145" y1="238" x2="220" y2="238" stroke="#f5f0ea" opacity="0.5"></line>
    <line x1="145" y1="256" x2="200" y2="256"></line>
    <line x1="208" y1="256" x2="260" y2="256" stroke="#f5f0ea" opacity="0.7"></line>
    <line x1="155" y1="274" x2="215" y2="274" stroke="#f5f0ea" opacity="0.5"></line>
    <line x1="155" y1="292" x2="245" y2="292" stroke="#F0B546"></line>
    <line x1="145" y1="310" x2="180" y2="310" stroke="#f5f0ea" opacity="0.6"></line>
    
    <line x1="188" y1="310" x2="188" y2="322" stroke="#F0B546" stroke-width="2.5"></line>
  </g>
  
  <path d="M 110 200 L 290 200 L 340 60 L 60 60 Z" fill="#F0B546" opacity="0.08"></path>
  
  <g fill="#0a0a0a">
    
    <ellipse cx="200" cy="130" rx="28" ry="32"></ellipse>
    
    <path d="M 130 335 Q 140 220 200 190 Q 260 220 270 335 Z"></path>
    
    <path d="M 155 260 Q 145 300 155 335 L 195 335 Q 190 300 195 260 Z"></path>
    <path d="M 245 260 Q 255 300 245 335 L 205 335 Q 210 300 205 260 Z"></path>
  </g>
  
  <g>
    <rect x="60" y="345" width="24" height="30" rx="2" fill="#3a3a3a"></rect>
    <path d="M 68 345 Q 66 335 70 328 Q 74 335 72 345" fill="none" stroke="#c9c2b8" stroke-width="1" opacity="0.6"></path>
  </g>
</svg>