<svg xmlns="http://www.w3.org/2000/svg" viewBox="0 0 400 400" preserveAspectRatio="xMidYMid slice">
  <defs>
    <radialGradient id="hugGlow" cx="50%" cy="45%" r="65%">
      <stop offset="0%" stop-color="#D97A9B" stop-opacity="0.42"></stop>
      <stop offset="60%" stop-color="#2a1620" stop-opacity="0.6"></stop>
      <stop offset="100%" stop-color="#141414"></stop>
    </radialGradient>
  </defs>
  <rect width="400" height="400" fill="url(#hugGlow)"></rect>
  
  <circle cx="200" cy="200" r="130" fill="#D97A9B" opacity="0.14"></circle>
  
  <g fill="#0a0a0a">
    
    <ellipse cx="155" cy="150" rx="30" ry="34"></ellipse>
    
    <path d="M 90 400 Q 100 220 155 190 Q 195 210 200 240 L 200 400 Z"></path>
    
    <path d="M 185 230 Q 235 220 270 250 L 260 268 Q 225 245 185 252 Z"></path>
  </g>
  
  <g fill="#0a0a0a">
    
    <ellipse cx="255" cy="160" rx="28" ry="32"></ellipse>
    
    <path d="M 200 400 L 200 240 Q 215 210 255 195 Q 305 220 315 400 Z"></path>
    
    <path d="M 220 245 Q 175 235 145 260 L 152 278 Q 185 260 220 268 Z"></path>
  </g>
  
  <path d="M 185 145 Q 205 130 225 148" fill="none" stroke="#D97A9B" stroke-width="3" stroke-linecap="round" opacity="0.55"></path>
  
  <ellipse cx="200" cy="395" rx="130" ry="8" fill="#0a0a0a" opacity="0.6"></ellipse>
</svg>