<svg xmlns="http://www.w3.org/2000/svg" viewBox="0 0 400 400" preserveAspectRatio="xMidYMid slice">
  <defs>
    <radialGradient id="pianoGlow" cx="50%" cy="30%" r="70%">
      <stop offset="0%" stop-color="#D97A9B" stop-opacity="0.35"></stop>
      <stop offset="60%" stop-color="#2a1620" stop-opacity="0.6"></stop>
      <stop offset="100%" stop-color="#141414"></stop>
    </radialGradient>
    <linearGradient id="pianoKeys" x1="0" y1="0" x2="0" y2="1">
      <stop offset="0%" stop-color="#f5f0ea"></stop>
      <stop offset="100%" stop-color="#c9c2b8"></stop>
    </linearGradient>
  </defs>
  <rect width="400" height="400" fill="url(#pianoGlow)"></rect>
  
  <circle cx="200" cy="120" r="140" fill="#D97A9B" opacity="0.12"></circle>
  
  <g fill="#0a0a0a">
    
    <ellipse cx="200" cy="150" rx="26" ry="30"></ellipse>
    
    <path d="M 140 260 Q 160 200 200 195 Q 240 200 260 260 L 260 290 L 140 290 Z"></path>
    
    <path d="M 152 250 Q 130 275 122 305 L 138 310 Q 148 285 168 265 Z"></path>
    <path d="M 248 250 Q 270 275 278 305 L 262 310 Q 252 285 232 265 Z"></path>
  </g>
  
  <g>
    <rect x="0" y="310" width="400" height="70" fill="url(#pianoKeys)"></rect>
    
    <g fill="#141414">
      <rect x="30" y="310" width="14" height="42"></rect>
      <rect x="60" y="310" width="14" height="42"></rect>
      <rect x="100" y="310" width="14" height="42"></rect>
      <rect x="130" y="310" width="14" height="42"></rect>
      <rect x="160" y="310" width="14" height="42"></rect>
      <rect x="200" y="310" width="14" height="42"></rect>
      <rect x="230" y="310" width="14" height="42"></rect>
      <rect x="270" y="310" width="14" height="42"></rect>
      <rect x="300" y="310" width="14" height="42"></rect>
      <rect x="330" y="310" width="14" height="42"></rect>
      <rect x="370" y="310" width="14" height="42"></rect>
    </g>
    
    <g stroke="#a89f92" stroke-width="1">
      <line x1="50" y1="310" x2="50" y2="380"></line>
      <line x1="87" y1="310" x2="87" y2="380"></line>
      <line x1="120" y1="310" x2="120" y2="380"></line>
      <line x1="150" y1="310" x2="150" y2="380"></line>
      <line x1="187" y1="310" x2="187" y2="380"></line>
      <line x1="220" y1="310" x2="220" y2="380"></line>
      <line x1="257" y1="310" x2="257" y2="380"></line>
      <line x1="290" y1="310" x2="290" y2="380"></line>
      <line x1="320" y1="310" x2="320" y2="380"></line>
      <line x1="357" y1="310" x2="357" y2="380"></line>
    </g>
    
    <rect x="0" y="378" width="400" height="22" fill="#0a0a0a"></rect>
  </g>
  
  <rect x="150" y="310" width="37" height="68" fill="#D97A9B" opacity="0.4"></rect>
</svg>