<svg xmlns="http://www.w3.org/2000/svg" viewBox="0 0 400 400" preserveAspectRatio="xMidYMid slice">
  <defs>
    <radialGradient id="singGlow" cx="50%" cy="35%" r="70%">
      <stop offset="0%" stop-color="#D97A9B" stop-opacity="0.4"></stop>
      <stop offset="55%" stop-color="#2a1620" stop-opacity="0.6"></stop>
      <stop offset="100%" stop-color="#141414"></stop>
    </radialGradient>
  </defs>
  <rect width="400" height="400" fill="url(#singGlow)"></rect>
  
  <path d="M 200 0 L 130 400 L 270 400 Z" fill="#D97A9B" opacity="0.08"></path>
  
  <g fill="#0a0a0a">
    
    <path d="M 210 130 Q 240 130 245 160 Q 250 190 230 205 Q 210 215 195 205 Q 180 195 180 175 Q 180 145 210 130 Z"></path>
    
    <path d="M 200 200 L 195 235 L 220 235 L 220 205 Z"></path>
    
    <path d="M 130 400 Q 140 260 200 240 Q 260 260 270 400 Z"></path>
    
    <path d="M 245 260 Q 265 250 280 240 L 295 265 Q 275 275 258 285 Z"></path>
  </g>
  
  <g>
    <rect x="286" y="215" width="18" height="38" rx="9" fill="#f5f0ea"></rect>
    <rect x="291" y="253" width="8" height="30" fill="#c9c2b8"></rect>
    
    <g stroke="#141414" stroke-width="1.5">
      <line x1="288" y1="225" x2="302" y2="225"></line>
      <line x1="288" y1="232" x2="302" y2="232"></line>
      <line x1="288" y1="240" x2="302" y2="240"></line>
    </g>
  </g>
  
  <g fill="none" stroke="#D97A9B" stroke-width="2.5" stroke-linecap="round" opacity="0.8">
    <path d="M 320 205 Q 340 220 340 245"></path>
    <path d="M 330 190 Q 360 215 360 250"></path>
    <path d="M 340 175 Q 380 210 380 255"></path>
  </g>
  
  <ellipse cx="203" cy="180" rx="4" ry="6" fill="#D97A9B" opacity="0.7"></ellipse>
</svg>