<svg xmlns="http://www.w3.org/2000/svg" viewBox="0 0 400 400" preserveAspectRatio="xMidYMid slice">
  <defs>
    <radialGradient id="teachGlow" cx="50%" cy="40%" r="75%">
      <stop offset="0%" stop-color="#FF6719" stop-opacity="0.3"></stop>
      <stop offset="55%" stop-color="#2a1a12" stop-opacity="0.5"></stop>
      <stop offset="100%" stop-color="#141414"></stop>
    </radialGradient>
  </defs>
  <rect width="400" height="400" fill="url(#teachGlow)"></rect>
  
  <rect x="40" y="60" width="320" height="200" fill="#1e1e1e" stroke="#3a3a3a" stroke-width="2"></rect>
  
  <g stroke="#FF6719" stroke-width="2.5" stroke-linecap="round" fill="none">
    
    <line x1="60" y1="220" x2="180" y2="220"></line>
    <line x1="60" y1="220" x2="60" y2="90"></line>
    
    <path d="M 65 210 Q 100 200 130 150 T 175 100"></path>
    
    <circle cx="90" cy="195" r="3" fill="#FF6719"></circle>
    <circle cx="120" cy="160" r="3" fill="#FF6719"></circle>
    <circle cx="150" cy="125" r="3" fill="#FF6719"></circle>
  </g>
  
  <g stroke="#f5f0ea" stroke-width="2.5" stroke-linecap="round" opacity="0.75">
    <line x1="220" y1="95" x2="340" y2="95"></line>
    <line x1="220" y1="115" x2="310" y2="115"></line>
    <line x1="220" y1="140" x2="330" y2="140"></line>
    <line x1="220" y1="160" x2="290" y2="160"></line>
    
    <line x1="220" y1="195" x2="270" y2="195" stroke="#FF6719" stroke-width="3"></line>
    <line x1="280" y1="195" x2="330" y2="195" stroke="#FF6719" stroke-width="3"></line>
  </g>
  
  <g fill="#0a0a0a">
    
    <circle cx="290" cy="290" r="26"></circle>
    
    <path d="M 250 400 Q 258 335 290 320 Q 322 335 330 400 Z"></path>
    
    <path d="M 275 340 Q 245 320 220 280 L 232 268 Q 260 300 285 350 Z"></path>
    
    <circle cx="220" cy="278" r="7"></circle>
  </g>
  
  <line x1="60" y1="80" x2="130" y2="80" stroke="#FF6719" stroke-width="3"></line>
</svg>